<?xml version="1.0" encoding="UTF-8" standalone="no"?>
<svg
   xmlns:dc="http://purl.org/dc/elements/1.1/"
   xmlns:cc="http://creativecommons.org/ns#"
   xmlns:rdf="http://www.w3.org/1999/02/22-rdf-syntax-ns#"
   xmlns:svg="http://www.w3.org/2000/svg"
   xmlns="http://www.w3.org/2000/svg"
   xmlns:sodipodi="http://sodipodi.sourceforge.net/DTD/sodipodi-0.dtd"
   xmlns:inkscape="http://www.inkscape.org/namespaces/inkscape"
   height="26.000002"
   id="svg1618"
   width="24.000002"
   version="1.1"
   inkscape:version="0.91 r13725"
   sodipodi:docname="baby.svg">
  <metadata
     id="metadata17">
    <rdf:RDF>
      <cc:Work
         rdf:about="">
        <dc:format>image/svg+xml</dc:format>
        <dc:type
           rdf:resource="http://purl.org/dc/dcmitype/StillImage" />
        <dc:title></dc:title>
      </cc:Work>
    </rdf:RDF>
  </metadata>
  <sodipodi:namedview
     pagecolor="#ffffff"
     bordercolor="#666666"
     borderopacity="1"
     objecttolerance="10"
     gridtolerance="10"
     guidetolerance="10"
     inkscape:pageopacity="0"
     inkscape:pageshadow="2"
     inkscape:window-width="1370"
     inkscape:window-height="579"
     id="namedview15"
     showgrid="false"
     fit-margin-top="0"
     fit-margin-left="0"
     fit-margin-right="0"
     fit-margin-bottom="0"
     inkscape:zoom="0.55764938"
     inkscape:cx="148.843"
     inkscape:cy="211.60252"
     inkscape:window-x="0"
     inkscape:window-y="0"
     inkscape:window-maximized="0"
     inkscape:current-layer="svg1618" />
  <defs
     id="defs1620">
    <marker
       id="ArrowEnd"
       markerHeight="3"
       markerUnits="strokeWidth"
       markerWidth="4"
       orient="auto"
       refX="0"
       refY="5"
       viewBox="0 0 10 10">
      <path
         d="M 0,0 10,5 0,10 Z"
         id="path1623"
         inkscape:connector-curvature="0" />
    </marker>
    <marker
       id="ArrowStart"
       markerHeight="3"
       markerUnits="strokeWidth"
       markerWidth="4"
       orient="auto"
       refX="10"
       refY="5"
       viewBox="0 0 10 10">
      <path
         d="M 10,0 0,5 10,10 Z"
         id="path1626"
         inkscape:connector-curvature="0" />
    </marker>
  </defs>
  <g
     id="g1628"
     transform="matrix(0.080622,0,0,0.06143595,-4.1453537e-7,0)">
    <g
       id="g1630">
      <path
         d="m 148.846,119.556 c 33.013,0 59.776,-26.764 59.776,-59.778 C 208.622,26.764 181.859,0 148.846,0 115.832,0 89.0711,26.764 89.0711,59.778 c 0,33.014 26.7609,59.778 59.7749,59.778 z"
         id="path1632"
         style="fill:#ffffff;stroke:none"
         inkscape:connector-curvature="0" />
      <path
         d="M 148.846,59.778"
         id="path1634"
         style="fill:#ffffff;stroke:none"
         inkscape:connector-curvature="0" />
    </g>
    <path
       d="m 148.748,244.516 -63.1889,0 0,-45.627 -48.325,48.646 c -21.832,21.832 -51.424,-6.162 -29.55601,-28.033 L 87.6941,139.333 c 6.49,-6.444 13.5929,-10.544 24.8649,-10.544 l 36.189,0 0.06,0 35.501,0 c 11.272,0 18.875,3.975 25.554,10.544 l 80.829,80.955 c 20.819,20.819 -9.572,49.079 -29.541,28.046 l -49.592,-49.695 0,45.877 -62.751,0 -0.06,0 z"
       id="path1636"
       style="fill:#ffffff;stroke:none"
       inkscape:connector-curvature="0" />
    <path
       d="m 211.298,268.179 -47.489,47.493 34.866,34.8 -35.726,35.726 c -21.085,21.087 8.003,51.245 29.808,29.44 l 56.501,-58.749 c 12.126,-12.374 15.479,-35.23 2.479,-48.23 -0.044,-0.044 -40.439,-40.48 -40.439,-40.48 z"
       id="path1638"
       style="fill:#ffffff;stroke:none"
       inkscape:connector-curvature="0" />
    <path
       d="m 85.5701,268.179 47.4889,47.493 -34.8659,34.8 35.7259,35.726 c 21.085,21.087 -8.003,51.245 -29.808,29.44 L 47.6101,356.889 c -12.126,-12.374 -15.479,-35.23 -2.479,-48.23 0.044,-0.044 40.439,-40.48 40.439,-40.48 z"
       id="path1640"
       style="fill:#ffffff;stroke:none"
       inkscape:connector-curvature="0" />
  </g>
</svg>
