<?xml version="1.0" encoding="UTF-8" standalone="no"?>
<svg
   xmlns:dc="http://purl.org/dc/elements/1.1/"
   xmlns:cc="http://creativecommons.org/ns#"
   xmlns:rdf="http://www.w3.org/1999/02/22-rdf-syntax-ns#"
   xmlns:svg="http://www.w3.org/2000/svg"
   xmlns="http://www.w3.org/2000/svg"
   xmlns:sodipodi="http://sodipodi.sourceforge.net/DTD/sodipodi-0.dtd"
   xmlns:inkscape="http://www.inkscape.org/namespaces/inkscape"
   enable-background="new 0 0 512 512"
   height="64"
   id="Layer_1"
   version="1.1"
   viewBox="0 0 63.999996 64"
   width="63.999996"
   xml:space="preserve"
   inkscape:version="0.91 r13725"
   sodipodi:docname="email.svg"><metadata
     id="metadata17"><rdf:RDF><cc:Work
         rdf:about=""><dc:format>image/svg+xml</dc:format><dc:type
           rdf:resource="http://purl.org/dc/dcmitype/StillImage" /><dc:title></dc:title></cc:Work></rdf:RDF></metadata><defs
     id="defs15" /><sodipodi:namedview
     pagecolor="#ffffff"
     bordercolor="#666666"
     borderopacity="1"
     objecttolerance="10"
     gridtolerance="10"
     guidetolerance="10"
     inkscape:pageopacity="0"
     inkscape:pageshadow="2"
     inkscape:window-width="1304"
     inkscape:window-height="658"
     id="namedview13"
     showgrid="false"
     fit-margin-top="0"
     fit-margin-left="0"
     fit-margin-right="0"
     fit-margin-bottom="0"
     inkscape:zoom="0.4609375"
     inkscape:cx="246.58571"
     inkscape:cy="420.01553"
     inkscape:window-x="0"
     inkscape:window-y="0"
     inkscape:window-maximized="0"
     inkscape:current-layer="Layer_1" /><path
     d="M 63.999864,56.0523 C 63.999864,60.4417 60.255496,64 55.63674,64 L 8.363393,64 C 3.744638,64 0,60.4417 0,56.0523 L 0,11.12617 C 0,6.73677 3.744638,3.17834 8.363393,3.17834 l 47.273347,0 c 4.618756,0 8.363124,3.5583 8.363124,7.94783 l 0,44.92613 z"
     id="path3"
     inkscape:connector-curvature="0"
     style="fill:#0a5772" /><path
     d="m 63.999864,52.87383 c 0,4.38953 -3.744368,7.94783 -8.363124,7.94783 l -47.273347,0 C 3.744638,60.82166 0,57.26336 0,52.87383 L 0,7.9477 C 0,3.55843 3.744638,0 8.363393,0 L 55.63674,0 c 4.618756,0 8.363124,3.55843 8.363124,7.9477 l 0,44.92613 z"
     id="path5"
     inkscape:connector-curvature="0"
     style="fill:#0083be" /><path
     d="m 63.999864,33.89181 c -0.01987,-0.0188 -0.03987,-0.0374 -0.05961,-0.0563 -1.112686,-1.08286 -2.252947,-2.1412 -3.37915,-3.21134 -1.112686,-1.08274 -2.252947,-2.14108 -3.379148,-3.21135 -1.112685,-1.08274 -2.252946,-2.14107 -3.37915,-3.21135 -2.216046,-2.15598 -4.489536,-4.26044 -6.72802,-6.39547 -1.846503,-1.76085 -4.172707,-3.01803 -6.657058,-3.77064 -2.74833,-0.83251 -5.672915,-1.05614 -8.53992,-0.83559 -2.514764,0.19345 -5.001276,0.7539 -7.314641,1.71704 -2.124133,0.88415 -4.091608,2.10485 -5.779291,3.61778 -1.622938,1.45487 -2.980139,3.17371 -3.99037,5.06455 -1.011311,1.8929 -1.671056,3.95099 -1.948417,6.05738 -0.331697,2.5204 -0.141924,5.12069 0.730167,7.53048 0.435234,1.20272 1.036723,2.35007 1.788786,3.40224 0.367381,0.51407 0.77004,1.00554 1.203923,1.47041 0.48065,0.51497 1.0055,0.99051 1.515886,1.47825 2.246728,2.14672 4.51157,4.2761 6.758298,6.4227 2.246728,2.14672 4.51157,4.2761 6.758298,6.42269 1.123499,1.07349 2.255785,2.13812 3.37915,3.21135 0.429287,0.41015 0.860194,0.81864 1.291375,1.22712 l 19.365902,0 c 4.618756,0 8.363124,-3.5583 8.363124,-7.94783 l 0,-18.98215 z"
     id="path7"
     inkscape:connector-curvature="0"
     style="fill:#0064a2" /><g
     id="g9"
     transform="matrix(0.13516595,0,0,0.12845396,-2.592078,-0.81838)"><path
       d="m 321.727,362.975 c -25.23,10.4 -47.107,13.853 -77.408,13.853 -69.824,0 -131.24,-45.862 -131.24,-121.396 0,-78.644 62.68,-146.916 157.332,-146.916 74.459,0 127.463,46.651 127.463,111.434 0,56.681 -34.484,92.139 -79.924,92.139 -19.779,0 -34.074,-9.656 -36.174,-29.689 l -0.842,0 c -13.461,19.303 -31.98,29.689 -54.697,29.689 -26.93,0 -47.115,-18.867 -47.115,-50.531 0,-47.38 38.283,-89.802 98.867,-89.802 18.508,0 39.545,4.252 50.053,9.265 l -12.629,71.688 c -4.188,22.752 -1.25,33.153 10.523,33.542 18.098,0.787 40.822,-20.443 40.822,-65.175 0,-50.471 -35.354,-89.006 -100.553,-89.006 -64.785,0 -120.742,45.871 -120.742,119.895 0,64.755 44.605,100.992 107.277,100.992 21.457,0 44.592,-4.254 61.422,-11.943 l 7.565,21.961 z M 284.299,203.739 c -3.365,-0.74 -7.996,-1.527 -13.047,-1.527 -27.768,0 -49.639,25.07 -49.639,54.749 0,14.642 7.154,23.907 21.031,23.907 15.564,0 31.975,-18.113 35.762,-40.488 l 5.893,-36.641 z"
       id="path11"
       inkscape:connector-curvature="0"
       style="fill:#ffffff" /></g></svg>