<?xml version="1.0" encoding="UTF-8" standalone="no"?>
<svg
   xmlns:dc="http://purl.org/dc/elements/1.1/"
   xmlns:cc="http://creativecommons.org/ns#"
   xmlns:rdf="http://www.w3.org/1999/02/22-rdf-syntax-ns#"
   xmlns:svg="http://www.w3.org/2000/svg"
   xmlns="http://www.w3.org/2000/svg"
   xmlns:sodipodi="http://sodipodi.sourceforge.net/DTD/sodipodi-0.dtd"
   xmlns:inkscape="http://www.inkscape.org/namespaces/inkscape"
   enable-background="new 0 0 512 512"
   height="64"
   id="Layer_1"
   version="1.1"
   viewBox="0 0 64 64"
   width="64"
   xml:space="preserve"
   inkscape:version="0.91 r13725"
   sodipodi:docname="facebook.svg"><metadata
     id="metadata14"><rdf:RDF><cc:Work
         rdf:about=""><dc:format>image/svg+xml</dc:format><dc:type
           rdf:resource="http://purl.org/dc/dcmitype/StillImage" /><dc:title></dc:title></cc:Work></rdf:RDF></metadata><defs
     id="defs12" /><sodipodi:namedview
     pagecolor="#ffffff"
     bordercolor="#666666"
     borderopacity="1"
     objecttolerance="10"
     gridtolerance="10"
     guidetolerance="10"
     inkscape:pageopacity="0"
     inkscape:pageshadow="2"
     inkscape:window-width="1208"
     inkscape:window-height="732"
     id="namedview10"
     showgrid="false"
     inkscape:zoom="0.4609375"
     inkscape:cx="-89.685475"
     inkscape:cy="248.829"
     inkscape:window-x="189"
     inkscape:window-y="26"
     inkscape:window-maximized="0"
     inkscape:current-layer="Layer_1"
     fit-margin-top="0"
     fit-margin-left="0"
     fit-margin-right="0"
     fit-margin-bottom="0" /><path
     d="M 64,56.0523 C 64,60.4417 60.255625,64 55.636859,64 L 8.363411,64 C 3.744646,64 0,60.4417 0,56.0523 L 0,11.12617 C 0,6.73677 3.744646,3.17834 8.363411,3.17834 l 47.273448,0 C 60.255625,3.17834 64,6.73664 64,11.12617 l 0,44.92613 z"
     id="path3"
     inkscape:connector-curvature="0"
     style="fill:#203656" /><path
     d="m 64,52.87383 c 0,4.38953 -3.744375,7.94783 -8.363141,7.94783 l -47.273448,0 C 3.744646,60.82166 0,57.26336 0,52.87383 L 0,7.9477 C 0,3.5583 3.744646,0 8.363411,0 L 55.636859,0 C 60.255625,0 64,3.5583 64,7.9477 l 0,44.92613 z"
     id="path5"
     inkscape:connector-curvature="0"
     style="fill:#3b5998" /><path
     d="M 64,33.86933 41.784211,12.75676 22.216329,31.9808 l 12.087512,11.48738 -6.303343,4.84785 13.158975,12.50563 14.477251,0 c 4.618901,0 8.363141,-3.5583 8.363141,-7.94783 l 0,-19.0045 z"
     id="path7"
     inkscape:connector-curvature="0"
     style="fill:#28416d" /><path
     d="m 34.917631,48.3159 0,-16.3351 5.769436,0 0.863847,-6.36554 -6.633148,0 0,-4.06403 c 0,-1.84318 0.538908,-3.09933 3.319278,-3.09933 l 3.547302,-10e-4 0,-5.69398 c -0.613249,-0.0782 -2.718463,-0.25138 -5.168757,-0.25138 -5.11415,0 -8.614955,2.96741 -8.614955,8.41527 l 0,4.69448 -5.784305,0 0,6.36554 5.784169,0 0,16.3351 6.917133,0 z"
     id="f_1_"
     inkscape:connector-curvature="0"
     style="fill:#ffffff" /></svg>