<?xml version="1.0" encoding="UTF-8" standalone="no"?>
<svg
   xmlns:dc="http://purl.org/dc/elements/1.1/"
   xmlns:cc="http://creativecommons.org/ns#"
   xmlns:rdf="http://www.w3.org/1999/02/22-rdf-syntax-ns#"
   xmlns:svg="http://www.w3.org/2000/svg"
   xmlns="http://www.w3.org/2000/svg"
   xmlns:sodipodi="http://sodipodi.sourceforge.net/DTD/sodipodi-0.dtd"
   xmlns:inkscape="http://www.inkscape.org/namespaces/inkscape"
   enable-background="new 0 0 128 128"
   height="256"
   id="Layer_1"
   version="1.1"
   viewBox="0 0 256 256"
   width="256"
   xml:space="preserve"
   inkscape:version="0.91 r13725"
   sodipodi:docname="feedback.svg"><metadata
     id="metadata19"><rdf:RDF><cc:Work
         rdf:about=""><dc:format>image/svg+xml</dc:format><dc:type
           rdf:resource="http://purl.org/dc/dcmitype/StillImage" /><dc:title></dc:title></cc:Work></rdf:RDF></metadata><defs
     id="defs17" /><sodipodi:namedview
     pagecolor="#ffffff"
     bordercolor="#666666"
     borderopacity="1"
     objecttolerance="10"
     gridtolerance="10"
     guidetolerance="10"
     inkscape:pageopacity="0"
     inkscape:pageshadow="2"
     inkscape:window-width="1427"
     inkscape:window-height="733"
     id="namedview15"
     showgrid="false"
     fit-margin-top="0"
     fit-margin-left="0"
     fit-margin-right="0"
     fit-margin-bottom="0"
     inkscape:zoom="1.84375"
     inkscape:cx="66.440678"
     inkscape:cy="64"
     inkscape:window-x="0"
     inkscape:window-y="0"
     inkscape:window-maximized="0"
     inkscape:current-layer="Layer_1" /><g
     id="g3"
     transform="scale(2,2)"><g
       id="g5"><path
         d="M 112,0 16,0 C 7.164,0 0,7.164 0,16 l 0,64 c 0,8.836 7.164,16 16,16 l 24,0 32,32 0,-32 40,0 c 8.836,0 16,-7.164 16,-16 l 0,-64 C 128,7.164 120.836,0 112,0 Z m 8,80 c 0,4.414 -3.59,8 -8,8 L 64,88 64,108.688 43.313,88 16,88 C 11.59,88 8,84.414 8,80 L 8,16 c 0,-4.414 3.59,-8 8,-8 l 96,0 c 4.41,0 8,3.586 8,8 l 0,64 z"
         id="path7"
         inkscape:connector-curvature="0"
         style="fill:#546e7a" /></g></g><path
     d="m 48,64 160,0 0,-16 -160,0 0,16 z"
     id="path9"
     inkscape:connector-curvature="0"
     style="fill:#b0bec5" /><path
     d="m 48,96 160,0 0,-16 -160,0 0,16 z"
     id="path11"
     inkscape:connector-curvature="0"
     style="fill:#b0bec5" /><path
     d="m 48,128 96,0 0,-16 -96,0 0,16 z"
     id="path13"
     inkscape:connector-curvature="0"
     style="fill:#b0bec5" /></svg>