<?xml version="1.0" encoding="UTF-8" standalone="no"?>
<!-- Created with Inkscape (http://www.inkscape.org/) -->

<svg
   xmlns:dc="http://purl.org/dc/elements/1.1/"
   xmlns:cc="http://creativecommons.org/ns#"
   xmlns:rdf="http://www.w3.org/1999/02/22-rdf-syntax-ns#"
   xmlns:svg="http://www.w3.org/2000/svg"
   xmlns="http://www.w3.org/2000/svg"
   xmlns:sodipodi="http://sodipodi.sourceforge.net/DTD/sodipodi-0.dtd"
   xmlns:inkscape="http://www.inkscape.org/namespaces/inkscape"
   width="18.062222mm"
   height="18.062223mm"
   viewBox="0 0 63.999998 64.000004"
   id="svg2"
   version="1.1"
   inkscape:version="0.91 r13725"
   sodipodi:docname="gamebanana.svg">
  <defs
     id="defs4" />
  <sodipodi:namedview
     id="base"
     pagecolor="#ffffff"
     bordercolor="#666666"
     borderopacity="1.0"
     inkscape:pageopacity="0.0"
     inkscape:pageshadow="2"
     inkscape:zoom="0.35"
     inkscape:cx="-371.73794"
     inkscape:cy="178.14113"
     inkscape:document-units="px"
     inkscape:current-layer="layer1"
     showgrid="false"
     inkscape:window-width="1440"
     inkscape:window-height="778"
     inkscape:window-x="0"
     inkscape:window-y="0"
     inkscape:window-maximized="1"
     fit-margin-top="0"
     fit-margin-left="0"
     fit-margin-right="0"
     fit-margin-bottom="0" />
  <metadata
     id="metadata7">
    <rdf:RDF>
      <cc:Work
         rdf:about="">
        <dc:format>image/svg+xml</dc:format>
        <dc:type
           rdf:resource="http://purl.org/dc/dcmitype/StillImage" />
        <dc:title></dc:title>
      </cc:Work>
    </rdf:RDF>
  </metadata>
  <g
     inkscape:label="Layer 1"
     inkscape:groupmode="layer"
     id="layer1"
     transform="translate(-206.73791,-606.93364)">
    <g
       id="g4284"
       transform="matrix(0.23111132,0,0,0.21603376,158.95844,525.98932)">
      <path
         style="fill:#e7d32d"
         d="m 281.36907,670.10031 c -0.45833,-0.45832 -0.83333,-4.67707 -0.83333,-9.375 l 0,-8.54166 -18.125,0 -18.125,0 0,-9.375 0,-9.375 -9.375,0 -9.375,0 0,-9.375 0,-9.375 -9.39891,0 -9.39892,0 0.33642,-27.75689 0.33641,-27.75687 3.125,-0.86853 c 1.71875,-0.47767 26.60937,-0.92459 55.3125,-0.99311 l 52.1875,-0.1246 0,-8.75 0,-8.75 16.81789,0 16.81788,0 0.36962,-8.4375 0.36961,-8.4375 8.125,-0.36115 8.125,-0.36115 -0.36486,-24.50255 c -0.35484,-23.82886 -0.2887,-24.58362 2.40539,-27.45135 2.16855,-2.30832 4.08045,-2.9488 8.80236,-2.9488 l 6.03211,0 0,-23.06789 0,-23.06789 -8.4375,-0.36961 -8.4375,-0.36961 -0.34878,-15.79366 c -0.29901,-13.54022 0.0259,-16.79512 2.27732,-22.8125 l 2.62609,-7.01884 27.41018,0 27.41019,0 0,18.75 0,18.75 9.375,0 9.375,0 0,9.375 0,9.375 9.375,0 9.375,0 0,8.69524 0,8.69524 9.0625,0.36726 9.0625,0.36726 0,64.375 0,64.375 -9.0625,0.36726 -9.0625,0.36727 0,18.07023 0,18.07024 -9.375,0 -9.375,0 0,9.375 0,9.375 -9.375,0 -9.375,0 0,9.375 0,9.375 -18.125,0 -18.125,0 0,9.375 0,9.375 -54.79166,0 c -30.13542,0 -55.16667,-0.375 -55.62501,-0.83334 z"
         id="path4298"
         inkscape:connector-curvature="0" />
      <path
         style="fill:#dccf27"
         d="m 281.36907,670.10031 c -0.45833,-0.45832 -0.83333,-4.67707 -0.83333,-9.375 l 0,-8.54166 -18.125,0 -18.125,0 0,-9.375 0,-9.375 -9.375,0 -9.375,0 0,-9.375 0,-9.375 -9.39891,0 -9.39892,0 0.33642,-27.75689 0.33641,-27.75687 3.125,-0.86853 c 1.71875,-0.47767 26.60937,-0.92459 55.3125,-0.99311 l 52.1875,-0.1246 0,-8.75 0,-8.75 16.81789,0 16.81788,0 0.36962,-8.4375 0.36961,-8.4375 8.125,-0.36115 8.125,-0.36115 -0.36486,-24.50255 c -0.35484,-23.82886 -0.2887,-24.58362 2.40539,-27.45135 2.16855,-2.30832 4.08045,-2.9488 8.80236,-2.9488 l 6.03211,0 0,-23.06789 0,-23.06789 -8.4375,-0.36961 -8.4375,-0.36961 -0.34878,-15.79366 c -0.29901,-13.54022 0.0259,-16.79512 2.27732,-22.8125 l 2.62609,-7.01884 27.41018,0 27.41019,0 0,18.75 0,18.75 9.375,0 9.375,0 0,9.375 0,9.375 9.375,0 9.375,0 0,8.69524 0,8.69524 9.0625,0.36726 9.0625,0.36726 0,64.375 0,64.375 -9.0625,0.36726 -9.0625,0.36727 0,18.07023 0,18.07024 -9.375,0 -9.375,0 0,9.375 0,9.375 -9.375,0 -9.375,0 0,9.375 0,9.375 -18.125,0 -18.125,0 0,9.375 0,9.375 -54.79166,0 c -30.13542,0 -55.16667,-0.375 -55.62501,-0.83334 z m -7.96407,-90.72971 45.25574,-0.34413 -45.9375,-0.29641 -45.9375,-0.29641 0.24482,9.0625 0.24483,9.0625 0.43693,-8.42196 0.43694,-8.42198 45.25574,-0.34411 z m 91.87408,-36.26129 8.38166,-0.43601 -9.0625,-0.24482 -9.0625,-0.24483 0.24483,9.0625 0.24482,9.0625 0.43601,-8.38166 0.43602,-8.38166 8.38166,-0.43602 z m 43.58451,-1.23816 c -0.34676,-0.85938 -0.63049,-0.15625 -0.63049,1.5625 0,1.71875 0.28373,2.42187 0.63049,1.5625 0.34676,-0.85938 0.34676,-2.26563 0,-3.125 z m -32.26884,-13.4375 c 0.2038,1.66666 0.3639,1.66666 1.44099,0 0.95175,-1.47273 1.21583,-1.50692 1.23086,-0.15945 0.0155,1.39456 0.37533,1.41995 1.92275,0.1357 1.59169,-1.32097 1.7746,-1.24365 1.11626,0.47195 -0.71915,1.87407 1.01973,2.51491 5.27788,1.94504 0.43875,-0.0588 1.23964,0.60823 1.77972,1.48212 0.78798,1.27495 1.38377,1.25544 3.01553,-0.0987 1.76006,-1.46072 2.12869,-1.32385 2.74106,1.01788 0.76198,2.9138 2.85271,3.70655 3.01463,1.14306 0.079,-1.25 0.22477,-1.25 0.72916,0 0.34676,0.85938 1.46055,1.5625 2.47509,1.5625 1.01453,0 1.49696,-0.5625 1.07206,-1.25 -0.4249,-0.6875 -0.17685,-1.25 0.55122,-1.25 0.72808,0 1.32378,0.5246 1.32378,1.16576 0,1.18244 2.43716,2.21641 7.71264,3.27214 1.6018,0.32055 4.03736,0.83057 5.41236,1.13337 1.375,0.30282 3.87946,0.85028 5.56547,1.21659 1.74853,0.3799 3.48559,0.005 4.04337,-0.87341 0.53783,-0.8467 0.9865,-13.69131 0.99702,-28.54359 0.01,-14.85227 0.37793,-30.4368 0.81644,-34.63228 l 0.7973,-7.62815 4.35535,1.81979 c 2.39545,1.00083 5.38371,1.81973 6.64059,1.81973 1.25688,0 2.78932,0.90075 3.40543,2.00168 1.70947,3.05465 2.79368,-14.03557 1.89114,-29.80979 l -0.76908,-13.44189 -17.30902,0 -17.30901,0 0,18.75 0,18.75 -9.375,0 -9.375,0 0,27.5 0,27.5 -9.0625,-0.002 -9.0625,-0.003 0.58025,9.06532 0.58025,9.06532 0.77211,-7.5 c 0.42466,-4.125 0.87529,-6.65625 1.0014,-5.625 z m 44.56599,10 c -0.4249,-0.6875 -0.17685,-1.25 0.55122,-1.25 0.72808,0 1.32378,0.5625 1.32378,1.25 0,0.6875 -0.24805,1.25 -0.55123,1.25 -0.30317,0 -0.89887,-0.5625 -1.32377,-1.25 z"
         id="path4296"
         inkscape:connector-curvature="0" />
      <path
         style="fill:#d5ae12"
         d="m 281.38205,670.11329 c -0.46547,-0.46547 -0.84631,-4.69005 -0.84631,-9.38798 l 0,-8.54166 -18.125,0 -18.125,0 0,-9.375 0,-9.375 -9.375,0 -9.375,0 0,-9.375 0,-9.375 -9.375,0 -9.375,0 0,-27.37771 0,-27.37773 3.93653,-1.37227 c 2.61268,-0.91079 21.31928,-1.37229 55.625,-1.37229 l 51.68847,0 0,-8.75 0,-8.75 16.81789,0 16.81788,0 0.36962,-8.4375 0.36961,-8.4375 8.4375,-0.36961 8.4375,-0.36962 0,-25.37415 c 0,-29.22589 0.1008,-29.51162 10.41093,-29.51162 l 5.83907,0 0,-23.125 0,-23.125 -8.125,0 -8.125,0 0,-17.97235 c 0,-13.21846 0.5004,-19.16995 1.89177,-22.5 l 1.89178,-4.52765 27.48322,0 27.48323,0 0,18.125 0,18.125 9.375,0 9.375,0 0,9.375 0,9.375 9.375,0 9.375,0 0,9.375 0,9.375 8.75,0 8.75,0 0,64.375 0,64.375 -8.75,0 -8.75,0 0,18.125 0,18.125 -9.375,0 -9.375,0 0,9.375 0,9.375 -9.375,0 -9.375,0 0,9.375 0,9.375 -18.07024,0 -18.07024,0 -0.36726,9.0625 -0.36726,9.0625 -54.46619,0.32548 c -29.9564,0.17901 -54.84703,-0.0554 -55.3125,-0.52084 z m 72.90369,-82.91862 0,-8.69418 18.4375,-0.34593 18.4375,-0.34591 0.36726,-9.0625 0.36726,-9.0625 8.54946,0 c 9.77566,0 10.0431,-0.32355 10.07396,-12.1875 l 0.0171,-6.5625 8.59065,0 8.59065,0 1.0252,-25.3125 c 0.56385,-13.92188 1.24087,-24.01878 1.50447,-22.43754 0.30699,1.84148 1.23143,2.76044 2.57165,2.55638 1.1508,-0.17522 3.28404,0.33939 4.74053,1.14356 1.45647,0.80417 3.04934,1.06094 3.5397,0.57059 0.49035,-0.49037 1.6064,0.086 2.48009,1.2809 1.34896,1.84481 1.70945,0.61917 2.39031,-8.12698 0.44097,-5.66467 0.80514,-16.96897 0.80926,-25.12065 0.007,-13.62657 0.18382,-14.74802 2.19499,-13.91296 2.18872,0.90879 6.01715,1.5023 11.19289,1.73521 2.51022,0.11296 2.7943,0.8747 3.19267,8.56149 l 0.43729,8.4375 0.24483,-10.25774 0.24482,-10.25774 -9.0625,-0.36726 -9.0625,-0.36726 -0.14484,-8.75 -0.14483,-8.75 -17.63405,-0.34662 -17.63405,-0.34661 -0.34612,18.47161 -0.34611,18.47162 -9.0625,0.36726 -9.0625,0.36726 0,27.44524 0,27.44524 -9.375,0 -9.375,0 0,9.375 0,9.375 -8.75,0 -8.75,0 0,8.75 0,8.75 -18.75,0 -18.75,0 0,9.375 0,9.375 -45.625,0 -45.625,0 -2.8e-4,9.0625 -2.9e-4,9.0625 63.75029,-0.3349 63.75028,-0.33489 0,-8.69419 z"
         id="path4294"
         inkscape:connector-curvature="0" />
      <path
         style="fill:#c09d0e"
         d="m 281.38205,670.11329 c -0.46547,-0.46547 -0.84631,-4.69005 -0.84631,-9.38798 l 0,-8.54166 -18.125,0 -18.125,0 0,-9.375 0,-9.375 -9.375,0 -9.375,0 0,-9.375 0,-9.375 -9.375,0 -9.375,0 0,-27.37771 0,-27.37773 3.93653,-1.37227 c 2.61268,-0.91079 21.31928,-1.37229 55.625,-1.37229 l 51.68847,0 0,-8.75 0,-8.75 16.81789,0 16.81788,0 0.36962,-8.4375 0.36961,-8.4375 8.4375,-0.36961 8.4375,-0.36962 0,-25.37415 c 0,-29.22589 0.1008,-29.51162 10.41093,-29.51162 l 5.83907,0 0,-23.125 0,-23.125 -8.125,0 -8.125,0 0,-17.97235 c 0,-13.21846 0.5004,-19.16995 1.89177,-22.5 l 1.89178,-4.52765 27.48322,0 27.48323,0 0,18.125 0,18.125 9.375,0 9.375,0 0,9.375 0,9.375 9.375,0 9.375,0 0,9.375 0,9.375 8.75,0 8.75,0 0,64.375 0,64.375 -8.75,0 -8.75,0 0,18.125 0,18.125 -9.375,0 -9.375,0 0,9.375 0,9.375 -9.375,0 -9.375,0 0,9.375 0,9.375 -18.07024,0 -18.07024,0 -0.36726,9.0625 -0.36726,9.0625 -54.46619,0.32548 c -29.9564,0.17901 -54.84703,-0.0554 -55.3125,-0.52084 z m 91.65369,-46.05464 0,-9.375 9.375,0 9.375,0 0,-9.375 0,-9.375 8.61626,0 c 9.86155,0 9.92422,-0.0671 9.67899,-10.35739 l -0.17025,-7.1443 9.0625,8.5e-4 9.0625,8.4e-4 0,-9.375 0,-9.375 9.375,0 9.375,0 0.0171,-22.8125 c 0.017,-22.77014 0.69297,-30.08374 2.5088,-27.14565 0.51097,0.82675 3.38606,1.6824 6.38908,1.90144 3.00304,0.21903 5.88194,0.4339 6.39756,0.47747 0.51563,0.0436 0.9375,14.39729 0.9375,31.89713 l 0,31.81788 -8.4375,0.43729 -8.4375,0.43729 9.0625,0.24482 9.06244,0.24483 0,-63.75 0,-63.75 -8.75,0 -8.75,0 0,-9.375 0,-9.375 -18.09159,0 -18.09157,0 -0.34593,18.4375 -0.34591,18.4375 -9.0625,0.36726 -9.0625,0.36726 0,27.44524 0,27.44524 -9.375,0 -9.375,0 0,9.375 0,9.375 -8.75,0 -8.75,0 0,8.75 0,8.75 -18.75,0 -18.75,0 0,9.375 0,9.375 -45.625,0 -45.625,0 0,18.125 0,18.125 8.75,0 8.75,0 0,8.71744 0,8.71745 19.0625,0.38014 c 10.48438,0.20907 39.45313,0.50497 64.375,0.65754 l 45.3125,0.27743 0,-9.375 z"
         id="path4292"
         inkscape:connector-curvature="0" />
      <path
         style="fill:#60551c"
         d="m 281.38205,670.11329 c -0.46547,-0.46547 -0.84631,-4.67462 -0.84631,-9.35365 l 0,-8.50735 -17.8125,-0.34681 -17.8125,-0.34683 -0.36726,-9.0625 -0.36726,-9.0625 -9.32024,0 -9.32024,0 0,-9.375 0,-9.375 -9.375,0 -9.375,0 0,-27.37771 0,-27.37773 3.93653,-1.37227 c 2.61268,-0.91079 21.31928,-1.37229 55.625,-1.37229 l 51.68847,0 0,-8.75 0,-8.75 16.81789,0 16.81788,0 0.36962,-8.4375 0.36961,-8.4375 8.4375,-0.36961 8.4375,-0.36962 0,-25.37415 c 0,-29.22589 0.1008,-29.51162 10.41093,-29.51162 l 5.83907,0 0,-23.125 0,-23.125 -8.125,0 -8.125,0 0,-17.97235 c 0,-13.21846 0.5004,-19.16995 1.89177,-22.5 l 1.89178,-4.52765 27.48322,0 27.48323,0 0,18.125 0,18.125 9.375,0 9.375,0 0,9.375 0,9.375 9.375,0 9.375,0 0,9.375 0,9.375 8.75,0 8.75,0 0,64.375 0,64.375 -8.75,0 -8.75,0 0,18.125 0,18.125 -9.375,0 -9.375,0 0,9.375 0,9.375 -9.32024,0 -9.32024,0 -0.36726,9.0625 -0.36726,9.0625 -17.75842,0.34649 -17.75843,0.3465 -0.36657,9.0285 -0.36658,9.02851 -54.46619,0.32548 c -29.9564,0.17901 -54.84703,-0.0554 -55.3125,-0.52084 z m 109.41143,-28.24214 0.36726,-9.0625 18.4375,-0.34591 18.4375,-0.34593 0,-8.71657 0,-8.71659 9.375,0 9.375,0 0,-18.75 0,-18.75 8.75,0 8.75,0 0,-63.75 0,-63.75 -8.75,0 -8.75,0 0,-9.375 0,-9.375 -18.75,0 -18.75,0 0,18.125 0,18.125 -8.72609,0 -8.72608,0 -0.33642,27.8125 -0.33641,27.8125 -9.0625,0.36726 -9.0625,0.36727 0,8.64047 0,8.64048 -9.0625,0.36726 -9.0625,0.36726 -0.36726,9.0625 -0.36726,9.0625 -18.07024,0 -18.07024,0 0,9.375 0,9.375 -46.25,0 -46.25,0 0,18.125 0,18.125 9.375,0 9.375,0 0,9.375 0,9.375 18.75,0 18.75,0 0,8.75 0,8.75 54.32024,0 54.32023,0 0.36727,-9.0625 z"
         id="path4290"
         inkscape:connector-curvature="0" />
      <path
         style="fill:#2c2c2b"
         d="m 281.78574,660.93365 0,-8.75 54.375,0 54.375,0 0,8.75 0,8.75 -54.375,0 -54.375,0 0,-8.75 z m -37.5,-18.75 0,-8.75 18.125,0 18.125,0 0,8.75 0,8.75 -18.125,0 -18.125,0 0,-8.75 z m 147.5,0 0,-8.75 18.125,0 18.125,0 0,8.75 0,8.75 -18.125,0 -18.125,0 0,-8.75 z m -165.99461,-18.4375 0.36961,-8.4375 9.0625,-0.36726 9.0625,-0.36727 0,8.80477 0,8.80476 -9.43211,0 -9.43212,0 0.36962,-8.4375 z m 202.24461,-0.3125 0,-8.75 9.375,0 9.375,0 0,-18.125 0,-18.125 8.75,0 8.75,0 0,18.125 0,18.125 -8.75,0 -8.75,0 0,8.75 0,8.75 -9.375,0 -9.375,0 0,-8.75 z m -220,-36.12771 0,-27.37773 3.93653,-1.37227 c 2.60968,-0.90975 21.14807,-1.37229 55,-1.37229 l 51.06347,0 0,-8.125 0,-8.125 16.875,0 16.875,0 0,-8.75 0,-8.75 8.75,0 8.75,0 0,-26.09695 c 0,-19.68216 0.39339,-26.42342 1.60039,-27.42515 0.88022,-0.73051 4.6771,-1.50251 8.4375,-1.71555 l 6.83711,-0.38735 0.34009,-23.4375 0.34007,-23.4375 -8.77757,0 -8.77759,0 0,-17.47471 c 0,-13.14127 0.49862,-18.72089 2.01072,-22.5 l 2.01073,-5.02529 27.33086,0 27.33085,0 0.34593,18.4375 0.34591,18.4375 8.33326,0.36724 8.33326,0.36723 0.41674,8.04132 0.41674,8.04132 -18.125,0.34145 -18.125,0.34144 -0.34561,18.38341 -0.3456,18.3834 -9.0294,0.3666 -9.02939,0.36659 -0.33688,27.1875 -0.33687,27.1875 -8.72563,0 -8.72562,0 0,9.375 0,9.375 -9.375,0 -9.375,0 0,9.375 0,9.375 -18.125,0 -18.125,0 0,8.75 0,8.75 -46.25,0 -46.25,0 0,18.75 0,18.75 -8.75,0 -8.75,0 0,-27.37771 z m 201.25,-184.49729 0,-9.375 -8.75,0 -8.75,0 0,9.375 0,9.375 8.75,0 8.75,0 0,-9.375 z m 56.25,110.625 0,-63.75 8.75,0 8.75,0 0,63.75 0,63.75 -8.75,0 -8.75,0 0,-63.75 z m -18.75,-73.75 0,-8.75 8.75,0 8.75,0 0,8.75 0,8.75 -8.75,0 -8.75,0 0,-8.75 z"
         id="path4288"
         inkscape:connector-curvature="0" />
      <path
         style="fill:#0e0e0f"
         d="m 281.78574,660.93365 0,-8.75 54.375,0 54.375,0 0,8.75 0,8.75 -54.375,0 -54.375,0 0,-8.75 z m -37.5,-18.75 0,-8.75 18.125,0 18.125,0 0,8.75 0,8.75 -18.125,0 -18.125,0 0,-8.75 z m 147.5,0 0,-8.75 18.125,0 18.125,0 0,8.75 0,8.75 -18.125,0 -18.125,0 0,-8.75 z m -165,-18.75 0,-8.86422 8.4375,0.36961 8.4375,0.36961 0,8.125 0,8.125 -8.4375,0.36961 -8.4375,0.36961 0,-8.86422 z m 202.29416,0.516 c -0.23053,-4.52869 -0.18478,-8.46619 0.10163,-8.75 0.28645,-0.2838 4.08332,-0.516 8.4375,-0.516 l 7.91666,0 0,8.75 0,8.75 -8.01834,0 -8.01835,0 -0.41915,-8.234 z m -221.04416,-36.56814 0,-27.30213 4.83252,-1.44787 c 3.31375,-0.99282 20.59929,-1.44786 55,-1.44786 l 50.16748,0 0,-8.08972 0,-8.08973 17.1875,-0.34777 17.1875,-0.34778 0.36961,-8.4375 0.36961,-8.4375 8.06789,0 8.06789,0 0.0398,-25.3125 c 0.0469,-29.84197 -0.007,-29.6875 10.43755,-29.6875 l 7.07669,0 -0.3395,-24.0625 -0.33949,-24.0625 -8.43974,0 -8.43972,0 0.002,-16.10498 c 0.001,-9.29988 0.66246,-18.27898 1.56474,-21.25 1.47076,-4.84293 1.5992,-4.15421 2.1875,11.72998 l 0.625,16.875 9.0625,0.36726 9.0625,0.36726 0,7.44524 c -2.8e-4,5.87027 0.40689,7.44524 1.92452,7.44524 1.05864,0 4.20692,1.16425 6.99619,2.58723 2.78926,1.42298 5.86061,2.28438 6.8252,1.91423 1.45528,-0.55844 1.75381,2.40553 1.75381,17.41277 l 0,18.08577 -9.375,0 -9.375,0 0,27.44524 0,27.44523 -9.0625,0.36727 -9.0625,0.36726 0,9.06315 0,9.06316 -9.0625,-6.6e-4 -9.0625,-6.5e-4 0,8.71659 0,8.71657 -18.4375,0.34593 -18.4375,0.34591 -0.36726,9.0625 -0.36726,9.0625 -45.57024,0 -45.57024,0 0,18.75 0,18.75 -8.75,0 -8.75,0 0,-27.30214 z m 238.75,9.17714 0,-18.125 8.75,0 8.75,0 0,18.125 0,18.125 -8.75,0 -8.75,0 0,-18.125 z m 18.75,-83.125 0,-63.75 8.75,0 8.75,0 0,63.75 0,63.75 -8.75,0 -8.75,0 0,-63.75 z m -18.75,-67.63374 c 0,-1.99966 0.52664,-2.42855 2.1875,-1.78144 1.20313,0.46876 4.71875,1.1513 7.8125,1.51677 9.39339,1.10963 8.77622,2.89841 -1,2.89841 -8.319,0 -9,-0.19929 -9,-2.63374 z m -33.4375,-17.02685 c 2.57813,-0.26968 6.79688,-0.26968 9.375,0 2.57813,0.26968 0.46875,0.49033 -4.6875,0.49033 -5.15625,0 -7.26562,-0.22065 -4.6875,-0.49033 z"
         id="path4286"
         inkscape:connector-curvature="0" />
    </g>
  </g>
</svg>
