<?xml version="1.0" encoding="UTF-8" standalone="no"?>
<svg
   xmlns:dc="http://purl.org/dc/elements/1.1/"
   xmlns:cc="http://creativecommons.org/ns#"
   xmlns:rdf="http://www.w3.org/1999/02/22-rdf-syntax-ns#"
   xmlns:svg="http://www.w3.org/2000/svg"
   xmlns="http://www.w3.org/2000/svg"
   xmlns:sodipodi="http://sodipodi.sourceforge.net/DTD/sodipodi-0.dtd"
   xmlns:inkscape="http://www.inkscape.org/namespaces/inkscape"
   height="64"
   style="overflow:visible"
   viewBox="0 0 64 64"
   width="64"
   xml:space="preserve"
   id="svg2"
   version="1.1"
   inkscape:version="0.91 r13725"
   sodipodi:docname="instagram.svg"><metadata
     id="metadata31"><rdf:RDF><cc:Work
         rdf:about=""><dc:format>image/svg+xml</dc:format><dc:type
           rdf:resource="http://purl.org/dc/dcmitype/StillImage" /><dc:title></dc:title></cc:Work></rdf:RDF></metadata><defs
     id="defs29" /><sodipodi:namedview
     pagecolor="#ffffff"
     bordercolor="#666666"
     borderopacity="1"
     objecttolerance="10"
     gridtolerance="10"
     guidetolerance="10"
     inkscape:pageopacity="0"
     inkscape:pageshadow="2"
     inkscape:window-width="1265"
     inkscape:window-height="561"
     id="namedview27"
     showgrid="false"
     fit-margin-top="0"
     fit-margin-left="0"
     fit-margin-right="0"
     fit-margin-bottom="0"
     inkscape:zoom="7.375"
     inkscape:cx="16.610169"
     inkscape:cy="16"
     inkscape:window-x="0"
     inkscape:window-y="0"
     inkscape:window-maximized="0"
     inkscape:current-layer="svg2" /><g
     id="g4"
     transform="scale(2,2)"><g
       id="Instagram_1_"><g
         id="Instagram"><path
           d="M 28,0 4,0 C 1.8,0 0,1.8 0,4 l 0,8 32,0 0,-8 C 32,1.8 30.2,0 28,0 Z"
           id="Head"
           style="fill:#895a4d"
           inkscape:connector-curvature="0" /><path
           d="M 2,0.6 2,12 4,12 4,0 C 3.3,0 2.6,0.2 2,0.6 Z"
           id="Red_x5F_Stripes"
           style="fill:#ff3939"
           inkscape:connector-curvature="0" /><rect
           height="12"
           id="Yellow_x5F_Stripes"
           style="fill:#fed049"
           width="2"
           x="4"
           y="0" /><rect
           height="12"
           id="Green_x5F_Stripes"
           style="fill:#10dd76"
           width="2"
           x="6"
           y="0" /><rect
           height="12"
           id="Blue_x5F_Stripes"
           style="fill:#5fccff"
           width="2"
           x="8"
           y="0" /><circle
           cx="26"
           cy="6"
           id="Lens_1_"
           r="3"
           style="fill:#162838" /><circle
           cx="26"
           cy="6"
           id="Lens_x5F_Outer"
           r="1.5"
           style="fill:#2c4356" /><circle
           cx="26"
           cy="6"
           id="Lens_x5F_Inside"
           r="0.5"
           style="fill:#47637a" /><path
           d="m 0,12 0,16 c 0,2.2 1.8,4 4,4 l 24,0 c 2.2,0 4,-1.8 4,-4 L 32,12 0,12 Z"
           id="Body"
           style="fill:#e5e0dc"
           inkscape:connector-curvature="0" /><g
           id="Shadow"><polygon
             points="22.4,12 24.7,12 22.4,9.6 "
             style="fill:#75483d"
             id="polygon18" /><path
             d="M 20,12 9.6,22.4 19.2,32 28,32 c 2.2,0 4,-1.8 4,-4 L 32,19.3 24.7,12 20,12 Z"
             style="fill:#d0cbc5"
             id="path20"
             inkscape:connector-curvature="0" /></g><circle
           cx="16"
           cy="16"
           id="Lens"
           r="9"
           style="fill:#dcd7d3" /><circle
           cx="16"
           cy="16"
           id="Inside_x5F_Lens"
           r="7"
           style="fill:#162838" /><circle
           cx="16"
           cy="16"
           id="_x32_nd_Inner_Circle"
           r="4"
           style="fill:#2c4356" /><circle
           cx="16"
           cy="16"
           id="Middle_Circle"
           r="2"
           style="fill:#162838" /><circle
           cx="18.5"
           cy="13.5"
           id="Reflection"
           r="1.5"
           style="fill:#47637a" /></g></g></g></svg>