<?xml version="1.0" encoding="UTF-8" standalone="no"?>
<svg
   xmlns:dc="http://purl.org/dc/elements/1.1/"
   xmlns:cc="http://creativecommons.org/ns#"
   xmlns:rdf="http://www.w3.org/1999/02/22-rdf-syntax-ns#"
   xmlns:svg="http://www.w3.org/2000/svg"
   xmlns="http://www.w3.org/2000/svg"
   xmlns:sodipodi="http://sodipodi.sourceforge.net/DTD/sodipodi-0.dtd"
   xmlns:inkscape="http://www.inkscape.org/namespaces/inkscape"
   enable-background="new 0 0 512 512"
   height="64"
   id="Layer_1"
   version="1.1"
   viewBox="0 0 64 64"
   width="64"
   xml:space="preserve"
   inkscape:version="0.91 r13725"
   sodipodi:docname="linkedin.svg"><metadata
     id="metadata21"><rdf:RDF><cc:Work
         rdf:about=""><dc:format>image/svg+xml</dc:format><dc:type
           rdf:resource="http://purl.org/dc/dcmitype/StillImage" /><dc:title></dc:title></cc:Work></rdf:RDF></metadata><defs
     id="defs19" /><sodipodi:namedview
     pagecolor="#ffffff"
     bordercolor="#666666"
     borderopacity="1"
     objecttolerance="10"
     gridtolerance="10"
     guidetolerance="10"
     inkscape:pageopacity="0"
     inkscape:pageshadow="2"
     inkscape:window-width="1184"
     inkscape:window-height="598"
     id="namedview17"
     showgrid="false"
     fit-margin-top="0"
     fit-margin-left="0"
     fit-margin-right="0"
     fit-margin-bottom="0"
     inkscape:zoom="0.4609375"
     inkscape:cx="7.6407134"
     inkscape:cy="-273.16575"
     inkscape:window-x="40"
     inkscape:window-y="86"
     inkscape:window-maximized="0"
     inkscape:current-layer="Layer_1" /><path
     d="M 64,53.999997 C 64,59.522742 59.523002,64 54,64 L 10,64 C 4.477136,64 0,59.522742 0,53.999997 L 0,10.000003 C 0,4.477121 4.477259,0 10,0 l 44,0 c 5.523002,0 10,4.477121 10,10.000003 l 0,43.999994 z"
     id="path3"
     inkscape:connector-curvature="0"
     style="fill:#0274b3" /><polygon
     points="-274.02,877.272 -274.02,877.279 -274.013,877.279 "
     id="polygon5"
     transform="matrix(0.08142286,0,0,0.07295285,0,26.64814)"
     style="fill:#ffffff" /><path
     d="m 64,53.999997 0,-10.280253 -15.821491,-15.821623 -5.880258,5.880254 -8.041629,-8.041633 -1.20562,1.205625 -12.059879,-12.059861 -6.429367,6.429375 5.739496,5.739495 -3.979502,3.979505 3.136634,3.136495 0,10.89774 -0.438129,-0.437988 -5.294121,5.294001 L 27.805133,64 54,64 c 5.523002,0 10,-4.477258 10,-10.000003 z"
     id="path7"
     inkscape:connector-curvature="0"
     style="fill:#0a5272" /><g
     id="g9"
     transform="scale(0.12499998,0.125)"><rect
       height="193.476"
       width="64.311996"
       x="109.794"
       y="205.896"
       id="rect11"
       style="fill:#ffffff" /><path
       d="m 141.955,179.473 -0.429,0 c -21.569,0 -35.525,-14.864 -35.525,-33.421 0,-18.979 14.385,-33.422 36.375,-33.422 22.006,0 35.533,14.444 35.963,33.422 -0.001,18.556 -13.966,33.421 -36.384,33.421 z"
       id="path13"
       inkscape:connector-curvature="0"
       style="fill:#ffffff" /><path
       d="m 405.992,399.371 -64.305,0 0,-103.53 c 0,-25.994 -9.303,-43.744 -32.572,-43.744 -17.767,0 -28.341,11.971 -33.001,23.529 -1.699,4.122 -2.111,9.894 -2.111,15.681 l 0,108.048 -64.304,0 c 0,0 0.841,-175.329 0,-193.467 l 64.304,0 0,27.391 c 8.547,-13.183 23.823,-31.95 57.96,-31.95 42.306,0 74.037,27.66 74.037,87.084 l 0,110.959 -0.008,0 z"
       id="path15"
       inkscape:connector-curvature="0"
       style="fill:#ffffff" /></g></svg>