<?xml version="1.0" encoding="UTF-8" standalone="no"?>
<svg
   xmlns:dc="http://purl.org/dc/elements/1.1/"
   xmlns:cc="http://creativecommons.org/ns#"
   xmlns:rdf="http://www.w3.org/1999/02/22-rdf-syntax-ns#"
   xmlns:svg="http://www.w3.org/2000/svg"
   xmlns="http://www.w3.org/2000/svg"
   xmlns:sodipodi="http://sodipodi.sourceforge.net/DTD/sodipodi-0.dtd"
   xmlns:inkscape="http://www.inkscape.org/namespaces/inkscape"
   enable-background="new 0 0 512 512"
   height="256"
   id="Layer_1"
   version="1.1"
   viewBox="0 0 256 256"
   width="256"
   xml:space="preserve"
   inkscape:version="0.91 r13725"
   sodipodi:docname="no.svg"><metadata
     id="metadata19"><rdf:RDF><cc:Work
         rdf:about=""><dc:format>image/svg+xml</dc:format><dc:type
           rdf:resource="http://purl.org/dc/dcmitype/StillImage" /><dc:title></dc:title></cc:Work></rdf:RDF></metadata><defs
     id="defs17" /><sodipodi:namedview
     pagecolor="#ffffff"
     bordercolor="#666666"
     borderopacity="1"
     objecttolerance="10"
     gridtolerance="10"
     guidetolerance="10"
     inkscape:pageopacity="0"
     inkscape:pageshadow="2"
     inkscape:window-width="1430"
     inkscape:window-height="699"
     id="namedview15"
     showgrid="false"
     fit-margin-top="0"
     fit-margin-left="0"
     fit-margin-right="0"
     fit-margin-bottom="0"
     inkscape:zoom="0.4609375"
     inkscape:cx="-89.386475"
     inkscape:cy="248.604"
     inkscape:window-x="20"
     inkscape:window-y="43"
     inkscape:window-maximized="0"
     inkscape:current-layer="Layer_1" /><path
     d="M 256,224.20919 C 256,241.76679 241.02247,256 222.54737,256 L 33.453175,256 C 14.978073,256 0,241.76679 0,224.20919 L 0,44.50467 C 0,26.94707 14.978073,12.71334 33.453175,12.71334 l 189.094195,0 C 241.02247,12.71334 256,26.94656 256,44.50467 l 0,179.70452 z"
     id="path3"
     inkscape:connector-curvature="0"
     style="fill:#992c1d" /><path
     d="m 256,211.49533 c 0,17.55811 -14.97753,31.79133 -33.45263,31.79133 l -189.094195,0 C 14.978073,243.28666 0,229.05344 0,211.49533 L 0,31.79081 C 0,14.23321 14.978073,0 33.453175,0 L 222.54737,0 C 241.02247,0 256,14.23321 256,31.79081 l 0,179.70452 z"
     id="path5"
     inkscape:connector-curvature="0"
     style="fill:#e8563f" /><path
     d="m 256,211.49533 0,-87.66983 c -0.066,-0.0642 -0.13354,-0.12588 -0.19897,-0.19062 -1.09971,-1.09237 -2.25133,-2.14364 -3.37754,-3.21238 -1.1262,-1.06925 -2.23078,-2.1647 -3.38078,-3.21032 -1.15,-1.04562 -2.21024,-2.18475 -3.38349,-3.20724 -1.07268,-1.11652 -2.27458,-2.12309 -3.37484,-3.21597 -1.09971,-1.09237 -2.25133,-2.14364 -3.37754,-3.21238 -1.12621,-1.06925 -2.23079,-2.1647 -3.38078,-3.21032 -1.15,-1.04561 -2.21025,-2.18474 -3.38349,-3.20724 -1.07268,-1.11652 -2.27459,-2.12308 -3.37484,-3.21597 -1.09972,-1.09237 -2.25133,-2.14364 -3.37754,-3.21238 -1.12621,-1.06925 -2.23079,-2.1647 -3.38079,-3.21032 -1.14999,-1.04561 -2.21024,-2.18474 -3.38349,-3.20724 -1.07268,-1.11652 -2.27458,-2.12308 -3.37483,-3.21597 -1.09972,-1.09237 -2.25134,-2.14364 -3.37755,-3.21238 -1.1262,-1.06925 -2.23078,-2.1647 -3.38078,-3.21032 -1.15,-1.04561 -2.21024,-2.18474 -3.38349,-3.20724 -1.07268,-1.11652 -2.27458,-2.12308 -3.37484,-3.21597 -1.09971,-1.09237 -2.25133,-2.14364 -3.37754,-3.21238 -1.1089,-1.05281 -2.20429,-2.11949 -3.32509,-3.15996 -0.98888,-0.91922 -2.21187,-1.60671 -3.54407,-1.96432 -1.48413,-0.39872 -3.09369,-0.28877 -4.62324,-0.28877 -2.47571,0 -4.95196,0 -7.42821,0 -6.9189,0 -13.83781,0 -20.75671,0 -4.3794,0 -8.75825,0 -13.13819,0 -4.02904,0 -8.05863,0 -12.08767,0 -2.88445,0 -5.76837,0 -8.65228,0 -0.17193,0 -0.23789,0.0529 -0.39307,0.13976 -0.47524,0.26564 -0.95049,0.5318 -1.42627,0.79847 -1.46791,0.82211 -2.93636,1.64473 -4.40427,2.46632 -0.7645,0.42852 -1.529,0.85601 -2.29296,1.28402 -0.11895,0.0668 -0.40442,0.0118 -0.53634,0.0118 -0.56284,0 -1.12513,0 -1.68796,0 -1.47656,0 -2.95312,0 -4.42914,0 -0.54932,0 -1.09809,0 -1.64687,0 -0.39198,0 -0.46173,-0.0997 -0.46173,0.30007 -0.54823,-0.372 -1.00077,-0.97676 -1.48791,-1.42173 -0.5969,-0.54464 -1.1527,-1.13296 -1.76149,-1.66579 -1.07863,-1.11241 -2.27296,-2.12411 -3.37538,-3.21546 -2.03561,-2.0157 -4.0431,-4.04681 -7.05137,-4.60122 -1.47007,-0.27129 -3.06179,-0.15826 -4.55241,-0.15826 -6.17819,0 -12.35638,0 -18.534031,0 -5.669425,0 -11.339391,0 -17.008816,0 -0.455781,0 -0.911563,0 -1.366804,0 -1.791226,0 -3.557042,0.47888 -5.015759,1.48031 -2.570327,1.76496 -3.553798,4.64438 -3.223992,7.55566 0.411447,3.63371 0.822894,7.26741 1.234341,10.9006 0.729358,6.43606 1.458176,12.8716 2.187535,19.30766 0.69043,6.09899 1.381402,12.19645 2.072373,18.29493 0.21951,1.94119 0.439561,3.8829 0.659613,5.8241 0.107592,0.94747 0.164903,1.92372 0.364409,2.85887 0.283849,1.33078 0.888314,2.59066 1.724724,3.68971 0.887234,1.16431 2.059398,2.1051 3.105587,3.13479 2.209161,2.17293 4.469686,4.3253 6.758867,6.42167 4.587011,4.20199 8.929641,8.64444 13.516653,12.8454 4.587011,4.20198 8.92964,8.64443 13.51665,12.84539 4.58701,4.20199 8.92964,8.64444 13.51666,12.8454 4.58701,4.20198 8.92964,8.64444 13.51665,12.84539 4.58701,4.20199 8.92964,8.64444 13.51665,12.8454 0.78937,0.72345 27.35068,26.00268 44.20378,42.02448 l 48.50857,0 C 241.02247,243.28655 256,229.05342 256,211.49531 Z"
     id="path7"
     inkscape:connector-curvature="0"
     style="fill:#bc3822" /><g
     id="g9"
     transform="matrix(0.54066612,0,0,0.51381583,-10.206695,-3.27352)"><path
       d="m 395.361,233.795 -3.613,0 c 8.575,0 15.525,-7.641 15.525,-17.07 l 0,-1.166 c 0,-9.429 -6.95,-17.074 -15.525,-17.074 l -11.274,0 c 8.574,0 15.529,-7.549 15.529,-16.863 l 0,-1.154 c 0,-9.314 -6.955,-16.865 -15.529,-16.865 l -11.489,0 c 8.579,0 15.529,-7.227 15.529,-16.146 l 0,-1.105 c 0,-8.915 -6.95,-16.145 -15.529,-16.145 l -81.255,0 -15.102,0 -23.188,0 -15.524,9.148 -16.167,0 0,99.125 c 17.441,-2.824 62.113,79.337 62.113,79.337 l 0,44.246 c 0,0 8.081,5.316 13.187,5.742 5.104,0.426 20.844,-5.957 23.61,-35.523 2.351,-25.133 -5.903,-55.486 -8.431,-64.025 l 87.133,0 c 8.579,0 15.529,-7.457 15.529,-16.657 l 0,-1.143 c 0.001,-9.201 -6.95,-16.662 -15.529,-16.662 z"
       id="path11"
       inkscape:connector-curvature="0"
       style="fill:#ffffff" /><path
       d="m 189.248,118.409 -73.602,0 c -9.355,0 -16.195,7.613 -15.192,16.918 l 11.883,110.38 c 1.003,9.308 9.479,16.92 18.838,16.92 l 58.073,0 c 9.359,0 17.013,-7.659 17.013,-17.018 l 0,-110.185 c 0,-9.359 -7.654,-17.015 -17.013,-17.015 z m -13.614,126.564 c -6.581,0 -11.912,-5.334 -11.912,-11.913 0,-6.58 5.331,-11.912 11.912,-11.912 6.577,0 11.912,5.332 11.912,11.912 0,6.579 -5.335,11.913 -11.912,11.913 z"
       id="path13"
       inkscape:connector-curvature="0"
       style="fill:#ffffff" /></g></svg>