<?xml version="1.0" encoding="UTF-8" standalone="no"?>
<svg
   xmlns:dc="http://purl.org/dc/elements/1.1/"
   xmlns:cc="http://creativecommons.org/ns#"
   xmlns:rdf="http://www.w3.org/1999/02/22-rdf-syntax-ns#"
   xmlns:svg="http://www.w3.org/2000/svg"
   xmlns="http://www.w3.org/2000/svg"
   xmlns:sodipodi="http://sodipodi.sourceforge.net/DTD/sodipodi-0.dtd"
   xmlns:inkscape="http://www.inkscape.org/namespaces/inkscape"
   height="63.999996"
   id="svg2"
   version="1.1"
   width="64"
   inkscape:version="0.91 r13725"
   sodipodi:docname="soundcloud.svg">
  <metadata
     id="metadata12">
    <rdf:RDF>
      <cc:Work
         rdf:about="">
        <dc:format>image/svg+xml</dc:format>
        <dc:type
           rdf:resource="http://purl.org/dc/dcmitype/StillImage" />
        <dc:title></dc:title>
      </cc:Work>
    </rdf:RDF>
  </metadata>
  <sodipodi:namedview
     pagecolor="#ffffff"
     bordercolor="#666666"
     borderopacity="1"
     objecttolerance="10"
     gridtolerance="10"
     guidetolerance="10"
     inkscape:pageopacity="0"
     inkscape:pageshadow="2"
     inkscape:window-width="1387"
     inkscape:window-height="596"
     id="namedview10"
     showgrid="false"
     fit-margin-top="0"
     fit-margin-left="0"
     fit-margin-right="0"
     fit-margin-bottom="0"
     inkscape:zoom="0.472"
     inkscape:cx="259.5339"
     inkscape:cy="250.00001"
     inkscape:window-x="20"
     inkscape:window-y="43"
     inkscape:window-maximized="0"
     inkscape:current-layer="svg2" />
  <defs
     id="defs4" />
  <g
     id="layer1"
     transform="matrix(0.128,0,0,0.12799999,0,-70.702354)">
    <path
       d="m 0,552.36218 0,500.00002 500,0 0,-500.00002 z"
       id="rect2989-1"
       style="fill:#ff5200;fill-opacity:1;stroke:none"
       inkscape:connector-curvature="0" />
    <g
       id="layer1-9"
       transform="translate(-549.00515,80.294372)" />
    <g
       id="layer1-6"
       transform="translate(-575.71429,39.999999)" />
    <path
       d="m 500,500 -260.39062,0 -186.210942,-186.21094 2.208209,-46.35999 11.521146,11.52114 3.339732,-25.1655 12.65067,12.65067 3.223272,-19.66301 14.380583,14.38058 1.63481,-15.85345 13.04682,13.04682 3.23899,-10.0608 13.58948,13.58948 2.66545,-39.29882 13.17934,13.17934 3.57621,-28.38808 13.00571,13.00571 3.26255,-20.30888 13.06885,13.06885 3.87581,-16.1242 13.21429,13.21429 3.30357,-11.33928 12.58928,12.58928 4.50893,-9.50892 10.44643,10.44643 6.74107,-26.91965 10.84822,10.84822 5.98214,-20.53572 25.74669,25.74669 77.62849,-13.76472 68.07322,68.07322 11.12746,-3.58289 L 500,317.20001 Z"
       id="path3047"
       style="opacity:0.3;fill:#000000;stroke:none;stroke-width:1px;stroke-linecap:butt;stroke-linejoin:miter;stroke-opacity:1"
       transform="translate(0,552.36218)"
       inkscape:connector-curvature="0" />
    <path
       d="m 295.3125,163.1875 c -11.10808,0 -21.91856,2.20627 -31.46875,5.90625 -3.72433,1.43617 -4.7176,2.86953 -4.75,5.75 l 0,156.15625 c 0.0324,2.98595 2.37524,5.50418 5.3125,5.8125 0.12983,0.0163 135.49869,0.0625 136.375,0.0625 C 427.96318,336.875 450,314.83008 450,287.65625 450,260.48244 427.95507,238.5 400.78125,238.5 c -6.73462,0 -13.18104,1.37018 -19.03125,3.8125 -3.92719,-44.34307 -41.08019,-79.125 -86.4375,-79.125 z m -46.28125,11.5 c -2.94539,0 -5.35755,2.42841 -5.40625,5.40625 0,0 -2.65977,85.65521 -2.21875,110.84375 0.44101,25.18853 2.21875,40.21875 2.21875,40.21875 0.0487,2.92916 2.46086,5.34375 5.40625,5.34375 2.94539,0 5.35755,-2.4134 5.40625,-5.375 0,0 2.18144,-26.76192 2.4375,-40.1875 0.70463,-36.94432 -2.4375,-110.84375 -2.4375,-110.84375 -0.0406,-2.97784 -2.45273,-5.40625 -5.40625,-5.40625 z M 231.75,184.28125 c -2.52204,0.25893 -4.5168,2.41449 -4.5625,5.03125 0,0 -2.4137,67.73362 -1.9375,101.59375 0.19161,13.62405 1.9375,40.8125 1.9375,40.8125 0.0487,2.75876 2.27248,5.0625 5.03125,5.0625 2.73966,0 5.01955,-2.2554 5.09375,-5.03125 l 0,-0.0312 c 0,0 1.94175,-27.1646 2.15625,-40.78125 0.53357,-33.87168 -2.15625,-101.625 -2.15625,-101.625 -0.0568,-2.79122 -2.3431,-5.03125 -5.09375,-5.03125 -0.17242,0 -0.30061,-0.0172 -0.46875,0 z M 182,195.9375 c -2.19889,0 -3.9895,1.73619 -4.0625,4 0,0 -2.85916,68.83793 -2.5,90.96875 0.35916,22.13082 2.5,41.71875 2.5,41.71875 0.073,2.23945 1.86361,4.03125 4.0625,4.03125 2.20701,0 3.9895,-1.78368 4.0625,-4.03125 0,0 2.43343,-19.58322 2.84375,-41.71875 0.41032,-22.13553 -2.84375,-90.96875 -2.84375,-90.96875 -0.073,-2.26381 -1.85549,-4 -4.0625,-4 z m 16.625,1.96875 c -2.40985,0 -4.34945,1.90144 -4.40625,4.34375 0,0 -2.75277,59.10432 -2.3125,88.65625 0.20566,13.80414 2.3125,41.34375 2.3125,41.34375 0.0487,2.42608 1.9964,4.375 4.40625,4.375 2.38279,0 4.32485,-1.91714 4.40625,-4.34375 l 0,-0.0312 c 0,0 2.33368,-27.53484 2.5625,-41.34375 0.48971,-29.55355 -2.5625,-88.65625 -2.5625,-88.65625 -0.0649,-2.44231 -2.01262,-4.34375 -4.40625,-4.34375 z m -33.09375,1.3125 c -2.02039,0 -3.64575,1.61037 -3.71875,3.6875 0,0 -3.11837,66.31655 -2.75,88 0.36837,21.68345 2.75,42 2.75,42 0.065,2.04474 1.69836,3.6875 3.71875,3.6875 1.98539,0 3.5903,-1.61107 3.6875,-3.65625 l 0,-0.0312 c 0,0 2.82706,-27.964 3.09375,-42 0.55746,-29.34037 -3.09375,-88 -3.09375,-88 -0.0811,-2.07718 -1.69146,-3.6875 -3.6875,-3.6875 z m 49.84375,1.5625 c -2.6046,0 -4.6932,2.10483 -4.75,4.75 0,0 -2.51565,56.91 -2.125,85.375 0.18836,13.72552 2.15625,41.125 2.15625,41.125 0.0487,2.59649 2.11415,4.65625 4.71875,4.65625 2.58838,0 4.65375,-2.07357 4.71875,-4.71875 0,0 2.16926,-27.35474 2.375,-41.0625 0.42727,-28.46677 -2.375,-85.375 -2.375,-85.375 -0.0649,-2.62893 -2.13037,-4.75 -4.71875,-4.75 z m -66.21875,5.5625 c -1.80943,0 -3.26265,1.4613 -3.34375,3.34375 0,0 -3.38324,54.1362 -2.9375,81.21875 0.2333,14.1744 2.9375,42.40625 2.9375,42.40625 0.0811,1.85 1.54244,3.34375 3.34375,3.34375 1.7908,0 3.30137,-1.46172 3.40625,-3.3125 l 0,-0.0312 c 0,0 2.90039,-21.77184 3.28125,-42.40625 0.38086,-20.63441 -3.28125,-81.21875 -3.28125,-81.21875 -0.0893,-1.88246 -1.59684,-3.34375 -3.40625,-3.34375 z m -16.21875,15.4375 c -1.61469,0 -2.94195,1.32041 -3.03125,3 0,0 -3.35928,47.92945 -3.125,66.09375 0.23428,18.16431 3.125,42.71875 3.125,42.71875 0.0892,1.66338 1.41656,3 3.03125,3 1.60657,0 2.94195,-1.32039 3.03125,-3 0,0 3.32223,-28.43082 3.53125,-42.71875 0.32268,-22.05795 -3.53125,-66.09375 -3.53125,-66.09375 -0.0893,-1.67959 -1.42468,-3 -3.03125,-3 z M 100.875,244.75 c -1.241433,0 -2.24635,0.9818 -2.34375,2.3125 0,0 -3.58214,29.40397 -3.5625,43.8125 0.01964,14.40854 3.5625,42.34375 3.5625,42.34375 0.0974,1.31447 1.094187,2.28125 2.34375,2.28125 1.2171,0 2.23014,-0.96678 2.34375,-2.28125 0,0 3.9782,-28.15986 4,-42.34375 0.0225,-14.65977 -4,-43.8125 -4,-43.8125 -0.11361,-1.3307 -1.12665,-2.3125 -2.34375,-2.3125 z m -15.84375,1.53125 c -1.054824,0 -1.925764,0.83279 -2.03125,1.96875 0,0.0162 -3.74224,28.36343 -3.71875,42.625 C 79.303885,304.61724 83,331.90625 83,331.90625 c 0.105486,1.14407 0.976426,1.96875 2.03125,1.96875 1.038599,0 1.878288,-0.78653 2,-1.90625 0,0 4.1935,-27.32396 4.21875,-41.09375 0.02618,-14.27771 -4.21875,-42.625 -4.21875,-42.625 -0.129825,-1.14407 -0.961401,-1.96875 -2,-1.96875 z m 31.8125,1.3125 c -1.4443,0 -2.5982,1.1239 -2.6875,2.625 0,0 -3.31695,27.065 -3.34375,40.65625 -0.0282,14.27335 3.34375,42.6875 3.34375,42.6875 0.0893,1.52544 1.23509,2.65625 2.6875,2.65625 1.41787,0 2.56799,-1.12405 2.6875,-2.625 l 0,-0.0312 c 0,0 3.81215,-28.74315 3.78125,-42.6875 -0.0309,-13.94435 -3.78125,-40.65625 -3.78125,-40.65625 -0.0974,-1.50921 -1.25944,-2.625 -2.6875,-2.625 z m -47.5625,5.71875 c -0.843851,0 -1.534538,0.67686 -1.65625,1.59375 0,0.0163 -3.95248,24.05084 -3.9375,35.96875 0.01498,11.91791 3.9375,35.125 3.9375,35.125 0.121712,0.93312 0.84365,1.59375 1.6875,1.59375 0.843861,0 1.549562,-0.64441 1.6875,-1.59375 0,0 4.42076,-23.32139 4.4375,-35.125 C 75.454618,278.80196 71,254.90625 71,254.90625 70.862062,253.95691 70.125112,253.3125 69.28125,253.3125 Z m -14.75,13.75 c -0.835749,0 -1.5114,0.64562 -1.625,1.5625 0,0 -2.91475,14.84379 -2.90625,22.25 0.0085,7.40621 2.90625,21.8125 2.90625,21.8125 0.1136,0.91689 0.797374,1.5625 1.625,1.5625 0.8114,0 1.463925,-0.66183 1.59375,-1.5625 0,0 3.45874,-14.44432 3.46875,-21.8125 0.01018,-7.49695 -3.46875,-22.25 -3.46875,-22.25 -0.121712,-0.91688 -0.78235,-1.5625 -1.59375,-1.5625 z"
       id="rect2989-7"
       style="fill:#ffffff;fill-opacity:1;stroke:none"
       transform="translate(0,552.36218)"
       inkscape:connector-curvature="0" />
  </g>
</svg>
