<?xml version="1.0" encoding="UTF-8" standalone="no"?>
<svg
   xmlns:dc="http://purl.org/dc/elements/1.1/"
   xmlns:cc="http://creativecommons.org/ns#"
   xmlns:rdf="http://www.w3.org/1999/02/22-rdf-syntax-ns#"
   xmlns:svg="http://www.w3.org/2000/svg"
   xmlns="http://www.w3.org/2000/svg"
   xmlns:sodipodi="http://sodipodi.sourceforge.net/DTD/sodipodi-0.dtd"
   xmlns:inkscape="http://www.inkscape.org/namespaces/inkscape"
   enable-background="new 0 0 512 512"
   height="64"
   id="Layer_1"
   version="1.1"
   viewBox="0 0 64 64"
   width="64"
   xml:space="preserve"
   inkscape:version="0.91 r13725"
   sodipodi:docname="twitter.svg"><metadata
     id="metadata15"><rdf:RDF><cc:Work
         rdf:about=""><dc:format>image/svg+xml</dc:format><dc:type
           rdf:resource="http://purl.org/dc/dcmitype/StillImage" /><dc:title></dc:title></cc:Work></rdf:RDF></metadata><defs
     id="defs13" /><sodipodi:namedview
     pagecolor="#ffffff"
     bordercolor="#666666"
     borderopacity="1"
     objecttolerance="10"
     gridtolerance="10"
     guidetolerance="10"
     inkscape:pageopacity="0"
     inkscape:pageshadow="2"
     inkscape:window-width="1211"
     inkscape:window-height="618"
     id="namedview11"
     showgrid="false"
     inkscape:zoom="0.4609375"
     inkscape:cx="304.81356"
     inkscape:cy="112.25022"
     inkscape:window-x="0"
     inkscape:window-y="0"
     inkscape:window-maximized="0"
     inkscape:current-layer="Layer_1"
     fit-margin-top="0"
     fit-margin-left="0"
     fit-margin-right="0"
     fit-margin-bottom="0" /><path
     d="m 295.361,906.591 0.023,0.023 c 0.005,-0.016 0.011,-0.03 0.016,-0.046 -0.012,0.01 -0.026,0.015 -0.039,0.023 z"
     id="path3"
     inkscape:connector-curvature="0"
     style="fill:#ffffff" /><path
     d="m 63.999875,54 c 0,5.52287 -4.477,10 -10,10 L 10,64 C 4.477125,64 0,59.52287 0,54 L 0,10 C 0,4.47712 4.477125,0 10,0 l 43.999875,0 c 5.523,0 10,4.47712 10,10 l 0,44 z"
     id="path5"
     inkscape:connector-curvature="0"
     style="fill:#2aa9e0" /><path
     d="M 53.333125,18.76775 C 51.7635,19.464 50.07625,19.9345 48.30575,20.146 c 1.807125,-1.08325 3.195125,-2.79875 3.848625,-4.84287 -1.691375,1.00324 -3.56475,1.73174 -5.558625,2.12412 -1.596625,-1.70112 -3.871875,-2.76413 -6.389375,-2.76413 -4.83425,0 -8.753625,3.91926 -8.753625,8.75338 0,0.686 0.07737,1.35412 0.226625,1.99488 -7.275,-0.36513 -13.725125,-3.85013 -18.042375,-9.14601 -0.7535,1.29276 -1.185125,2.79638 -1.185125,4.40063 0,3.037 1.54525,5.71625 3.894125,7.28613 -1.434875,-0.0456 -2.78475,-0.43938 -3.964875,-1.09501 -8.75e-4,0.0366 -8.75e-4,0.0731 -8.75e-4,0.11013 0,4.241 3.0175,7.779 7.02175,8.58325 -0.734375,0.20013 -1.507875,0.30712 -2.306,0.30712 -0.564125,0 -1.112375,-0.0549 -1.647125,-0.157 1.114,3.47738 4.346625,6.0085 8.17725,6.07888 -2.995875,2.34788 -6.77025,3.74738 -10.8715,3.74738 -0.7065,0 -1.403375,-0.0414 -2.088125,-0.12238 3.873875,2.48375 8.475125,3.93312 13.4185,3.93312 16.100875,0 24.90575,-13.3385 24.90575,-24.90612 0,-0.37938 -0.0085,-0.75688 -0.02562,-1.1325 1.7105,-1.23413 3.194625,-2.77575 4.368,-4.53125 z"
     id="path7"
     inkscape:connector-curvature="0"
     style="fill:#ffffff" /><path
     d="M 29.257875,64 54,64 c 5.523,0 10,-4.47725 10,-10 L 64,27.15625 52.152625,15.30887 c -0.65425,2.04163 -2.04125,3.75488 -3.846625,4.83713 1.7705,-0.2115 3.45775,-0.682 5.027375,-1.37825 -1.173375,1.7555 -2.6575,3.29713 -4.367875,4.53125 0.01713,0.37562 0.02562,0.753 0.02562,1.1325 0,11.56775 -8.804875,24.90612 -24.90575,24.90612 -4.943375,0 -9.544625,-1.44925 -13.4185,-3.93312"
     id="path9"
     inkscape:connector-curvature="0"
     style="fill:#1a70b7" /></svg>