<?xml version="1.0" encoding="UTF-8" standalone="no"?>
<svg
   xmlns:dc="http://purl.org/dc/elements/1.1/"
   xmlns:cc="http://creativecommons.org/ns#"
   xmlns:rdf="http://www.w3.org/1999/02/22-rdf-syntax-ns#"
   xmlns:svg="http://www.w3.org/2000/svg"
   xmlns="http://www.w3.org/2000/svg"
   xmlns:sodipodi="http://sodipodi.sourceforge.net/DTD/sodipodi-0.dtd"
   xmlns:inkscape="http://www.inkscape.org/namespaces/inkscape"
   enable-background="new 0 0 512 512"
   height="256"
   id="Layer_1"
   version="1.1"
   viewBox="0 0 256 256"
   width="256"
   xml:space="preserve"
   inkscape:version="0.91 r13725"
   sodipodi:docname="yes.svg"><metadata
     id="metadata19"><rdf:RDF><cc:Work
         rdf:about=""><dc:format>image/svg+xml</dc:format><dc:type
           rdf:resource="http://purl.org/dc/dcmitype/StillImage" /><dc:title></dc:title></cc:Work></rdf:RDF></metadata><defs
     id="defs17" /><sodipodi:namedview
     pagecolor="#ffffff"
     bordercolor="#666666"
     borderopacity="1"
     objecttolerance="10"
     gridtolerance="10"
     guidetolerance="10"
     inkscape:pageopacity="0"
     inkscape:pageshadow="2"
     inkscape:window-width="1397"
     inkscape:window-height="671"
     id="namedview15"
     showgrid="false"
     fit-margin-top="0"
     fit-margin-left="0"
     fit-margin-right="0"
     fit-margin-bottom="0"
     inkscape:zoom="0.46"
     inkscape:cx="246.39261"
     inkscape:cy="248.604"
     inkscape:window-x="20"
     inkscape:window-y="43"
     inkscape:window-maximized="0"
     inkscape:current-layer="Layer_1" /><path
     d="M 256,224.20919 C 256,241.76679 241.02298,256 222.54729,256 L 33.452705,256 C 14.977564,256 0,241.76679 0,224.20919 L 0,44.50467 C 0,26.94707 14.977564,12.71334 33.452705,12.71334 l 189.094585,0 C 241.02298,12.71334 256,26.94656 256,44.50467 l 0,179.70452 z"
     id="path3"
     inkscape:connector-curvature="0"
     style="fill:#257016" /><path
     d="m 256,211.49533 c 0,17.55811 -14.97702,31.79133 -33.45271,31.79133 l -189.094585,0 C 14.977564,243.28666 0,229.05344 0,211.49533 L 0,31.79081 C 0,14.23321 14.977564,0 33.452705,0 L 222.54729,0 C 241.02298,0 256,14.23321 256,31.79081 l 0,179.70452 z"
     id="path5"
     inkscape:connector-curvature="0"
     style="fill:#65bc54" /><path
     d="m 256,211.49533 0,-56.53156 c -2.13293,-2.03831 -4.21234,-4.1578 -6.4361,-6.10156 -1.07106,-1.11807 -2.27459,-2.1236 -3.37485,-3.21546 -1.10026,-1.09289 -2.2508,-2.14518 -3.37755,-3.21341 -2.24917,-2.13182 -4.4259,-4.37257 -6.76428,-6.41653 -1.07107,-1.11806 -2.27459,-2.1236 -3.37485,-3.21546 -1.10026,-1.09288 -2.2508,-2.14518 -3.37755,-3.2134 -2.24917,-2.13182 -4.4259,-4.37257 -6.76429,-6.41653 -1.07106,-1.11807 -2.27458,-2.12361 -3.37484,-3.21598 -1.10026,-1.09237 -2.2508,-2.14466 -3.37755,-3.21289 -2.23296,-2.11692 -4.40319,-4.31811 -6.70427,-6.36669 -0.49634,-0.44188 -1.04836,-0.82724 -1.64309,-1.14221 -0.62015,-0.32884 -1.48251,-0.4573 -1.97614,-0.91973 -1.13108,-1.05744 -2.21944,-2.15854 -3.3689,-3.19799 -2.18916,-2.19605 -4.50484,-4.29191 -6.7578,-6.42887 -4.51024,-4.27803 -9.00697,-8.56736 -13.51668,-12.84539 -9.0259,-8.56223 -18.02747,-17.14758 -27.05283,-25.7098 -1.59929,-1.51782 -3.91767,-3.05001 -6.28633,-3.03254 -1.02889,0.008 -2.06914,0.37868 -3.0072,0.74914 -1.02132,0.40334 -2.00749,0.88787 -2.9661,1.4094 -0.46984,0.25588 -0.93697,0.51895 -1.39005,0.80155 -0.0341,0.0206 -0.003,0.30418 -0.003,0.34014 0,0.84883 0,1.69714 0,2.54545 0,6.00342 0,12.00633 0,18.00924 0,0.60014 0,1.19976 0,1.7999 0,0.15363 -0.1849,0.35967 -0.25952,0.48812 -0.80829,1.3945 -1.63335,2.78078 -2.4676,4.16191 -3.28077,5.43463 -6.70103,10.79836 -10.32891,16.03003 -3.83711,5.53277 -7.8613,11.14672 -12.79381,15.86355 -1.59821,1.52757 -3.40512,3.14763 -5.54833,3.95227 -0.37954,0.14233 -0.77423,0.25382 -1.17865,0.30829 -0.17518,0.0236 -0.35197,0.036 -0.52877,0.0354 -0.5477,-0.55338 -1.14135,-1.06462 -1.69445,-1.61287 -2.20052,-2.17806 -4.46646,-4.33146 -6.75834,-6.42269 -1.04782,-0.9557 -1.99723,-1.90112 -3.31159,-2.5362 -1.27327,-0.61555 -2.69306,-0.93925 -4.12205,-0.93925 -0.30656,-0.003 -0.61366,0 -0.92021,0 -2.09941,0 -4.19883,0 -6.2977,0 -6.829164,0 -13.658333,0 -20.487501,0 -4.028511,0 -8.056483,0 -12.084454,0 -4.888713,0 -8.677168,3.91527 -8.23274,8.54938 0.07569,0.78665 0.176798,1.57176 0.266008,2.35738 0.546074,4.82114 1.092148,9.64176 1.638222,14.46289 0.754772,6.66625 1.510084,13.33147 2.264855,19.99771 0.608251,5.36989 1.216502,10.74081 1.825293,16.11121 0.13787,1.21877 0.27574,2.43652 0.414151,3.65478 0.109215,0.96391 0.3244,1.9042 0.719087,2.80235 0.549318,1.2496 1.378702,2.38308 2.398941,3.32593 1.136483,1.05075 2.214033,2.16213 3.367816,3.19542 2.151856,2.21968 4.501596,4.29909 6.753475,6.42783 2.256745,2.13234 4.44807,4.34329 6.763207,6.41756 2.151856,2.21969 4.501596,4.2991 6.753475,6.42784 2.256745,2.13233 4.448065,4.34328 6.763205,6.41756 2.15186,2.21968 4.5016,4.2991 6.75348,6.42783 2.25674,2.13234 4.44807,4.34329 6.7632,6.41756 2.15186,2.21969 4.5016,4.2991 6.75348,6.42784 2.25674,2.13182 4.44807,4.34329 6.7632,6.41756 1.79178,1.84871 3.71871,3.60134 5.61429,5.36372 l 105.88212,0 C 241.02298,243.28706 256,229.05339 256,211.49528 Z"
     id="path7"
     inkscape:connector-curvature="0"
     style="fill:#449234" /><g
     id="g9"
     transform="matrix(0.54066726,0,0,0.51381583,-10.483538,-3.27352)"><path
       d="m 411.402,234.87 0,-1.142 c 0,-9.199 -6.951,-16.661 -15.529,-16.661 l -87.133,0 c 2.527,-8.537 10.781,-38.891 8.43,-64.023 -2.766,-29.566 -18.506,-35.949 -23.611,-35.524 -5.104,0.426 -13.186,5.743 -13.186,5.743 l 0,44.244 c 0,0 -44.672,82.164 -62.113,79.34 l 0,99.122 16.166,0 15.525,9.15 23.188,0 15.102,0 81.256,0 c 8.578,0 15.529,-7.23 15.529,-16.145 l 0,-1.107 c 0,-8.918 -6.951,-16.145 -15.529,-16.145 l 11.488,0 c 8.574,0 15.529,-7.551 15.529,-16.865 l 0,-1.156 c 0,-9.313 -6.955,-16.861 -15.529,-16.861 l 11.275,0 c 8.574,0 15.525,-7.643 15.525,-17.074 l 0,-1.167 c 0,-9.429 -6.951,-17.07 -15.525,-17.07 l 3.613,0 c 8.578,-0.001 15.529,-7.46 15.529,-16.659 z"
       id="path11"
       inkscape:connector-curvature="0"
       style="fill:#ffffff" /><path
       d="m 189.758,224.512 -73.598,0 c -9.359,0 -16.199,7.616 -15.195,16.92 l 11.883,110.38 c 1.004,9.305 9.479,16.92 18.838,16.92 l 58.072,0 c 9.359,0 17.014,-7.658 17.014,-17.018 l 0,-110.184 c -0.001,-9.358 -7.655,-17.018 -17.014,-17.018 z m -13.613,126.562 c -6.58,0 -11.912,-5.329 -11.912,-11.912 0,-6.576 5.332,-11.912 11.912,-11.912 6.576,0 11.912,5.336 11.912,11.912 0,6.583 -5.336,11.912 -11.912,11.912 z"
       id="path13"
       inkscape:connector-curvature="0"
       style="fill:#ffffff" /></g></svg>